<svg width="93" height="100" viewBox="0 0 93 100" fill="none" xmlns="http://www.w3.org/2000/svg">
<g opacity="0.75">
<path fill-rule="evenodd" clip-rule="evenodd" d="M35 50.5C35 44.1487 40.1487 39 46.5 39C52.8484 39.0069 57.9931 44.1516 58 50.5C58 56.8513 52.8513 62 46.5 62C40.1487 62 35 56.8513 35 50.5ZM37.9273 50.5C37.9273 55.2346 41.7654 59.0727 46.5 59.0727C51.2325 59.0677 55.0677 55.2325 55.0727 50.5C55.0727 45.7654 51.2346 41.9273 46.5 41.9273C41.7654 41.9273 37.9273 45.7654 37.9273 50.5Z" fill="#545CEB" fill-opacity="0.75"/>
<path d="M51.3816 50C50.4877 50 49.7631 50.5411 49.7631 51.2085C49.7582 52.2542 49.0127 53.2199 47.8034 53.7472C47.3038 53.9646 46.9976 54.3646 47 54.7964C47.0025 55.2283 47.3132 55.6263 47.8153 55.8406C48.3173 56.0549 48.9343 56.053 49.4339 55.8355C51.6365 54.874 52.9932 53.1137 53 51.2085C53 50.5411 52.2754 50 51.3816 50Z" fill="#545CEB" fill-opacity="0.75"/>
<path fill-rule="evenodd" clip-rule="evenodd" d="M84.8161 46.5485C85.3542 46.69 85.9081 46.7626 86.4646 46.7646C89.1078 46.763 91.4902 45.1698 92.5019 42.727C93.5136 40.2843 92.9555 37.4726 91.0877 35.6017C90.9832 35.4979 90.8722 35.4038 90.7586 35.3075L90.7503 35.3004C91.847 31.3224 91.5939 27.8574 89.9463 25C86.403 18.8565 77.0984 16.8439 64.3315 19.3865C60.136 7.0557 53.7378 0 46.6579 0C39.578 0 33.1807 7.05485 28.981 19.3873C16.2116 16.843 6.90951 18.8565 3.36704 24.9992C1.77001 27.7586 1.48992 31.2262 2.5082 35.0751C0.0283094 37.0172 -0.715023 40.4517 0.739828 43.2458C2.19468 46.0399 5.43421 47.3995 8.44663 46.4802C9.32234 47.6456 10.2816 48.8245 11.315 50.0051C2.73599 59.7975 -0.173749 68.8633 3.36619 75C5.90979 79.411 11.4154 81.6987 19.0437 81.6987C22.383 81.6578 25.7105 81.2926 28.9793 80.6084C33.1781 92.9426 39.5772 100 46.6579 100C49.857 100 53.0123 98.4996 55.8478 95.6759C58.7259 96.9374 62.0941 95.9712 63.8665 93.3758C65.6389 90.7803 65.3137 87.2905 63.0922 85.0675C62.999 84.9736 62.8999 84.8874 62.8013 84.8016L62.8013 84.8016L62.8012 84.8015L62.8012 84.8015L62.8012 84.8015L62.8011 84.8014L62.8011 84.8014L62.8009 84.8012L62.8007 84.8011L62.7598 84.7654C63.3124 83.4582 63.8413 82.065 64.3408 80.6084C67.6081 81.2931 70.9342 81.6582 74.2722 81.6987C81.8996 81.6987 87.4061 79.4101 89.9497 75C93.493 68.8633 90.5799 59.7975 82.0025 50.0059C82.998 48.8692 83.9378 47.7131 84.8161 46.5485ZM88.9989 42.7629C87.5978 44.1604 85.3304 44.1604 83.9294 42.7629C82.5307 41.3626 82.5313 39.0934 83.9308 37.6939C85.3302 36.2944 87.5989 36.2944 88.9984 37.6939C90.3978 39.0934 90.3985 41.3626 88.9997 42.7629H88.9989ZM88.0742 33.9021C88.7694 30.9755 88.5467 28.4819 87.3917 26.476V26.4751C84.5891 21.616 76.361 20.0641 65.235 22.216C66.6713 27.231 67.6705 32.361 68.2215 37.5485C72.4403 40.6183 76.3817 44.0522 80.0005 47.811C80.7621 46.9322 81.4854 46.0467 82.1704 45.1544L82.1078 45.0997L82.1076 45.0995C82.016 45.0195 81.9245 44.9395 81.838 44.8523C79.7614 42.7701 79.331 39.5568 80.7864 37.0012C82.2419 34.4456 85.2246 33.1772 88.0742 33.9021ZM62.3405 77.1578C58.2331 76.1553 54.2066 74.8462 50.2949 73.2413C52.8132 72.0236 55.3213 70.7004 57.7823 69.2793C60.2626 67.8447 62.6628 66.3325 64.9532 64.7671C64.3932 68.9568 63.5198 73.0987 62.3405 77.1578ZM28.3601 64.7671C28.9209 68.9569 29.7951 73.0988 30.9754 77.1578C35.0831 76.1553 39.1098 74.8462 43.0218 73.2413C40.4993 72.0253 37.9937 70.7004 35.5353 69.2793C33.0558 67.8464 30.6565 66.3325 28.3601 64.7671ZM30.9754 22.8422C35.0828 23.8446 39.1093 25.1537 43.021 26.7586C40.5018 27.9764 37.9945 29.2996 35.5336 30.7249C33.0533 32.1595 30.6531 33.6717 28.3584 35.2371C28.9195 31.0458 29.7943 26.9025 30.9754 22.8422ZM15.3063 50C18.2261 53.0573 21.3741 55.8879 24.7231 58.4675C24.513 55.6793 24.4042 52.8447 24.4042 50C24.4042 47.1553 24.5147 44.3173 24.7231 41.5325C21.3743 44.1123 18.2263 46.943 15.3063 50ZM37.0125 66.7207C33.8168 64.8751 30.7586 62.8937 27.8952 60.8329C27.5426 57.2962 27.357 53.6599 27.357 50C27.357 46.3401 27.5426 42.7046 27.8952 39.1671C30.756 37.108 33.8151 35.1257 37.0125 33.2793C40.1762 31.4506 43.4192 29.7882 46.6588 28.319C49.9009 29.789 53.143 31.4515 56.3067 33.2793C59.5024 35.1249 62.5607 37.1063 65.424 39.1671C65.7766 42.7038 65.9622 46.3401 65.9622 50C65.9622 53.6599 65.7766 57.2954 65.424 60.8329C62.5632 62.892 59.5041 64.8743 56.3067 66.7207C53.143 68.5494 49.9001 70.2118 46.6605 71.681C43.4166 70.211 40.1745 68.5485 37.0108 66.7207H37.0125ZM64.9575 35.2295C64.3966 31.0397 63.5224 26.8978 62.3422 22.8388L62.3405 22.8422C58.2328 23.8447 54.206 25.1538 50.294 26.7587C52.8165 27.9747 55.3222 29.2996 57.7865 30.7173C60.2617 32.1502 62.6611 33.6641 64.9575 35.2295ZM68.5927 41.5325C71.9418 44.1121 75.0898 46.9427 78.0095 50C75.0895 53.057 71.9415 55.8877 68.5927 58.4675C68.8011 55.6827 68.9116 52.8447 68.9116 50C68.9116 47.1553 68.8028 44.3207 68.5927 41.5325ZM61.4344 20.0211C57.7207 9.30717 52.2581 2.95359 46.6579 2.95359C41.0578 2.95359 35.596 9.30633 31.8815 20.0211C36.9434 21.2797 41.887 22.9738 46.6571 25.0844C51.4279 22.974 56.372 21.2799 61.4344 20.0211ZM3.99387 42.7629C2.78049 41.5528 2.5909 39.6538 3.54109 38.2276C4.49129 36.8015 6.31649 36.2456 7.90003 36.9C9.48357 37.5545 10.3842 39.2369 10.0509 40.9181C9.7176 42.5992 8.24325 43.8105 6.52987 43.811C5.57818 43.8149 4.66455 43.4374 3.99302 42.7629H3.99387ZM5.22728 33.8219C7.37566 33.384 9.60049 34.0523 11.1522 35.6017V35.5992C13.7022 38.1546 13.7022 42.2927 11.1522 44.8481C11.1269 44.873 11.1003 44.8965 11.0737 44.9201C11.0524 44.9389 11.0311 44.9577 11.0105 44.9772C11.7242 45.9145 12.4919 46.8574 13.3136 47.8059C16.9329 44.0501 20.8746 40.6192 25.0935 37.5527C25.645 32.365 26.6445 27.2347 28.0808 22.2194C16.9548 20.0667 8.72672 21.6186 5.92329 26.4802C4.7734 28.4633 4.54561 30.9308 5.22728 33.8219ZM5.9216 73.5232C3.12575 68.6692 5.8946 60.7629 13.3179 52.1941C16.936 55.9511 20.8766 59.3833 25.0943 62.4515C25.6453 67.639 26.6446 72.769 28.0808 77.784C16.954 79.9342 8.72588 78.3831 5.92329 73.5232H5.9216ZM56.469 92.6812C57.8952 93.6318 59.7942 93.442 61.0041 92.2278C61.6754 91.5544 62.0522 90.6421 62.0519 89.6911C62.0517 87.9768 60.8404 86.5015 59.1593 86.168C57.4782 85.8344 55.7958 86.7355 55.1413 88.3199C54.4868 89.9043 55.0428 91.7305 56.469 92.6812ZM58.4694 83.1536C55.9306 83.1549 53.622 84.6268 52.5491 86.9287C51.4757 89.2317 51.8337 91.9483 53.467 93.8945C51.2735 95.9848 48.9889 97.0464 46.6621 97.0464C41.062 97.0464 35.5994 90.6928 31.8857 79.9789C36.9481 78.7201 41.8922 77.026 46.663 74.9156C51.4342 77.0264 56.3789 78.7204 61.442 79.9789C61.0286 81.1646 60.5983 82.2996 60.1478 83.3755C59.6003 83.2293 59.0361 83.1547 58.4694 83.1536ZM65.2393 77.784C76.3653 79.9367 84.5934 78.384 87.3968 73.5232H87.3926C90.1901 68.6692 87.4213 60.7629 79.998 52.1941C76.3816 55.9507 72.4427 59.3827 68.2266 62.4506C67.6751 67.6384 66.6756 72.7687 65.2393 77.784Z" fill="#545CEB" fill-opacity="0.75"/>
</g>
</svg>
