<svg width="40" height="40" viewBox="0 0 40 40" fill="none" xmlns="http://www.w3.org/2000/svg">
<g opacity="0.75">
<path fill-rule="evenodd" clip-rule="evenodd" d="M37.4194 11.6129C38.8426 11.6129 40 10.4555 40 9.03226V7.74194C40 6.31867 38.8426 5.16129 37.4194 5.16129H32.2581V3.87097C32.9697 3.87097 33.5484 3.29228 33.5484 2.58065V1.29032C33.5484 0.578692 32.9697 0 32.2581 0H1.29032C0.578692 0 0 0.578692 0 1.29032V2.58065C0 3.29228 0.578692 3.87097 1.29032 3.87097V17.1412L0 15.9227V40H25.4936L7.7328 23.2258H25.8065V34.1936C25.8065 35.2605 26.675 36.129 27.7419 36.129H38.0645C39.1315 36.129 40 35.2605 40 34.1936V17.4194C40 16.3524 39.1315 15.4839 38.0645 15.4839H32.2581V11.6129H37.4194ZM34.8387 7.74194H20.6452V6.45161H34.8387V7.74194ZM17.2924 8.3871L19.3548 9.76248V7.01172L17.2924 8.3871ZM20.6452 9.03226H34.8387V10.3226H20.6452V9.03226ZM37.4194 10.3226C38.131 10.3226 38.7097 9.74389 38.7097 9.03226V7.74194C38.7097 7.0303 38.131 6.45161 37.4194 6.45161H36.129V10.3226H37.4194ZM1.29032 1.29032H32.2581L32.2587 2.58065H1.29032V1.29032ZM1.29032 37.4194V38.7097H22.2483L1.29032 18.916V23.2258H2.58065V24.5161H1.29032V25.8065H2.58065V27.0968H1.29032V28.3871H2.58065V29.6774H1.29032V30.9677H2.58065V32.2581H1.29032V33.5484H2.58065V34.8387H1.29032V36.129H2.58065V37.4194H1.29032ZM38.7097 34.1936C38.7097 34.5495 38.4199 34.8387 38.0645 34.8387H27.7419C27.3866 34.8387 27.0968 34.5495 27.0968 34.1936V17.4194C27.0968 17.0634 27.3866 16.7742 27.7419 16.7742H38.0645C38.4199 16.7742 38.7097 17.0634 38.7097 17.4194V34.1936ZM20 15.4839H30.9677V11.6129H19.8044L14.9657 8.3871L19.8044 5.16129H30.9677V3.87097H2.58065V18.36L6.36656 21.9355H25.8065V19.3548H20V18.0645H25.8065V17.4194C25.8065 17.1922 25.8528 16.9768 25.9252 16.7742H20V15.4839Z" fill="#1E1618"/>
<path d="M13.077 7.69231H8.84619L7.73411 16.7277L5.98772 14.362H3.84619V15.696H5.39697L8.57366 20L9.92311 9.02625H13.077V7.69231Z" fill="#1E1618"/>
<path d="M17.5086 10.7692L14.6154 13.6624L11.7223 10.7692L10.7693 11.7222L13.6625 14.6154L10.7693 17.5086L11.7223 18.4615L14.6154 15.5684L17.5086 18.4615L18.4616 17.5086L15.5684 14.6154L18.4616 11.7222L17.5086 10.7692Z" fill="#1E1618"/>
<path d="M20.7693 13.0769H30.0001V14.6154H20.7693V13.0769Z" fill="#1E1618"/>
<path fill-rule="evenodd" clip-rule="evenodd" d="M3.0769 36.9231V25.3846L15.3846 36.9231H3.0769ZM12.0244 35.5968L4.41304 28.4616V35.5968H12.0244Z" fill="#1E1618"/>
<path fill-rule="evenodd" clip-rule="evenodd" d="M28.4614 17.6923H36.923V23.0769H28.4614V17.6923ZM29.6702 21.7308H35.7142V19.0385H29.6702V21.7308Z" fill="#1E1618"/>
<path d="M33.0769 25.3846H36.9231V26.9231H33.0769V25.3846Z" fill="#1E1618"/>
<path d="M28.4614 30H32.3076V31.5385H28.4614V30Z" fill="#1E1618"/>
<path d="M28.4614 32.3077H32.3076V33.8462H28.4614V32.3077Z" fill="#1E1618"/>
<path d="M29.7435 28.4615H31.0255V27.1795H32.3076V25.8974H31.0255V24.6154H29.7435V25.8974H28.4614V27.1795H29.7435V28.4615Z" fill="#1E1618"/>
<path d="M36.1195 30L35.3847 30.7348L34.6498 30L33.8462 30.8036L34.581 31.5385L33.8462 32.2733L34.6498 33.0769L35.3847 32.3421L36.1195 33.0769L36.9231 32.2733L36.1883 31.5385L36.9231 30.8036L36.1195 30Z" fill="#1E1618"/>
</g>
</svg>
